<?xml version="1.0" encoding="UTF-8"?><svg version="1.1" viewBox="0 0 425 425" xmlns="http://www.w3.org/2000/svg"><g fill="#000"><path d="M182.79 221.346h-45.872V15h28.342c3.613 22.915 23.495 40.496 47.409 40.496 23.914 0 43.796-17.581 47.41-40.496h28.339v114.851c0 4.142 3.358 7.5 7.5 7.5 4.142 0 7.5-3.358 7.5-7.5v-20.217l16.141 8.07c1.071.536 2.217.792 3.35.792 2.372 0 4.685-1.126 6.132-3.176l35.999-50.997c2.254-3.194 1.677-7.584-1.326-10.087L300.747 1.765C299.442.665 297.758 0 295.918 0h-166.5c-1.843 0-3.528.667-4.834 1.77l-62.96 52.466c-3.003 2.503-3.581 6.893-1.326 10.087l35.999 50.997c1.447 2.049 3.76 3.176 6.132 3.176 1.132 0 2.278-.257 3.35-.792l16.14-8.07v119.212c0 4.142 3.358 7.5 7.5 7.5h53.372c4.142 0 7.5-3.358 7.5-7.5 0-4.142-3.359-7.5-7.501-7.5Zm137.712-119.941l-17.084-8.542V23.517l45.374 37.811 -28.29 40.077ZM212.669 40.496c-15.615 0-28.722-10.905-32.129-25.496h64.258c-3.407 14.592-16.514 25.496-32.129 25.496Zm-107.835 60.909l-28.29-40.077 45.374-37.811v69.346l-17.084 8.542Z"/><path d="M357.692 146.063H206.896c-4.142 0-7.5 3.358-7.5 7.5v264.274c0 4.142 3.358 7.5 7.5 7.5h57.751c3.98 0 7.268-3.109 7.488-7.084l10.158-182.747 10.158 182.747c.221 3.974 3.508 7.084 7.488 7.084h57.751c4.142 0 7.5-3.358 7.5-7.5V153.563c.002-4.143-3.356-7.5-7.498-7.5Zm-7.5 31.785h-23.65v-16.785h23.65v16.785Zm-97.146 0v-16.785h58.496v16.785h-58.496Zm-15-16.785v16.785h-23.65v-16.785h23.65Zm68.99 249.273L296.841 226.94c-.221-3.974-3.508-7.084-7.488-7.084h-14.117c-3.98 0-7.268 3.109-7.488 7.084l-10.194 183.396h-43.157V192.848h135.796v217.488h-43.157Z"/></g></svg>