<?xml version="1.0" encoding="UTF-8"?><svg version="1.1" viewBox="0 0 128 128" xmlns="http://www.w3.org/2000/svg"><g fill="#000"><path d="M107.212 80.355l-4.979-41.5c-1.609-13.422-11.577-23.543-23.186-23.543h-2.3V10l0-.0001c0-.9654-.7817-1.7484-1.7471-1.75h-22 -.0001c-.9665 0-1.75.7835-1.75 1.75 0 0 0 0 0 0v5.311h-2.3c-11.608 0-21.576 10.122-23.186 23.543l-4.979 41.5 -.0001 0c-.1155.959.5684 1.83 1.5274 1.9454 .0695.0083.1395.0125.2095.0125h10.385l0-.0001c.8231-.0001 1.535-.5737 1.71-1.378l5.083-23.374 -3.122 60.35 -.0001 0c-.0498.9652.6924 1.7879 1.6576 1.8376 .03.0015.0601.0023.0903.0023h15.591l0 0c.8175.0001 1.5262-.5658 1.707-1.3631l8.376-36.942 8.376 36.942 -.0001-.0001c.1807.7972.8894 1.3631 1.707 1.363h15.588l0-.0001c.967-.0005 1.7506-.7847 1.7502-1.7518 -.0001-.0295-.0008-.0589-.0023-.0883l-3.119-60.349 5.087 23.375 -.0001-.0001c.1749.8043.8868 1.3779 1.7099 1.378h10.382l0-.0001c.9664-.0004 1.7497-.7841 1.7494-1.7506 -.0001-.0694-.0042-.1386-.0125-.2075Zm-8.453-41.084l.874 7.289c-.081 0-.161.023-.242.023l-.0001 0c-2.3925.0006-4.3326-1.9384-4.3333-4.3308 -.0006-2.0715 1.4654-3.8535 3.4982-4.2523 .07.423.151.841.203 1.271ZM73.25 18.25h-7.5v-6.5h7.5Zm-18.5-6.5h7.5v6.5h-7.5ZM29.457 37.917h3.074v4.667h-3.688l.4-3.312c.057-.46.138-.906.214-1.355Zm-4.96 40.9L24.835 76h7.274l-.609 2.814Zm8.374-6.317h-7.616l3.169-26.417h5.858 -.0001c.9664 0 1.75-.7836 1.75-1.75v-8.166 0c0-.9665-.7836-1.75-1.75-1.75h-3.991c2.846-9.161 10.247-15.605 18.661-15.605h2.3V20l-.0001 0c-.0001.9657.7822 1.7488 1.748 1.7499h9.25v17.75h-18.107l.166-3.213 -.0001 0c.0507-.9652-.6906-1.7888-1.6557-1.8395 -.8574-.0451-1.6208.5383-1.8024 1.3774Zm32.879.833V54.367h18.876l.562 10.856 -7.333 9.724 -.0001 0c-.348.462-.4456 1.0658-.261 1.614l9.661 28.6 .194 3.756h-13.631Zm-11.567 35.584H40.552l.194-3.759 9.66-28.6 0-.0001c.1849-.5481.0872-1.1522-.2611-1.614l-7.333-9.725 .562-10.855h18.876v18.972ZM42.531 70.662l4.264 5.654 -5.38 15.926Zm38.675 5.654l4.263-5.653 1.117 21.58Zm3.239-25.449H65.75V43h18.288Zm-22.195 0h-18.7L43.962 43H62.25ZM40.172 116.25l.2-3.833h13.017l-.869 3.833Zm35.308 0l-.869-3.833H87.63l.2 3.833Zm11.668-80.423l0 0c-.2045-.9447-1.1359-1.5448-2.0806-1.3404 -.8391.1815-1.4226.9449-1.3775 1.8023l.166 3.213h-18.106v-17.752h9.25l-.0001-.0001c.9664 0 1.75-.7836 1.75-1.75v-1.189h2.3c8.468 0 15.912 6.524 18.717 15.778l-.0001 0c-4.2317.8989-6.9333 5.0581-6.0343 9.2897 .7685 3.6176 3.9627 6.2048 7.6612 6.2052 .221 0 .441-.012.66-.03l2.691 22.446h-7.616ZM96.5 78.814L95.891 76h7.274l.338 2.814Z"/><path d="M77.875 33.25h-6 -.0001c-.9665 0-1.75.7835-1.75 1.75 0 .9664.7835 1.75 1.75 1.75h6 -.0001c.9664 0 1.75-.7836 1.75-1.75 0-.9665-.7836-1.75-1.75-1.75Z"/></g></svg>