<?xml version="1.0" encoding="UTF-8"?><svg version="1.1" viewBox="0 0 512 512" xmlns="http://www.w3.org/2000/svg"><g fill="#000"><path d="M436.308 57.918C388.065 20.569 324.03 0 256 0 187.97 0 123.935 20.569 75.692 57.918 26.881 95.708 0 146.126 0 199.887v79.316c0 18.228 10.15 34.571 26.489 42.651l19.607 9.696c17.748 8.776 37.125 13.24 56.615 13.239 .877 0 1.754-.025 2.631-.043L336.679 488.55c.045 12.938 10.582 23.45 23.53 23.45h16.032c12.976 0 23.533-10.557 23.533-23.532V464.42c0-7.035-3.107-13.354-8.016-17.67V247.468h96.709c12.976 0 23.532-10.557 23.532-23.532v-24.048c.001-53.762-26.88-104.18-75.691-141.97ZM150.934 335.332l188.863 117.401c-1.981 3.446-3.12 7.435-3.12 11.687v6.467L129.296 341.974c2.169-.461 4.333-.964 6.485-1.54 5.179-1.388 10.236-3.099 15.153-5.102Zm233.84 153.136c0 4.705-3.828 8.532-8.533 8.532h-16.032c-4.705 0-8.532-3.828-8.532-8.532V464.42c0-4.705 3.828-8.532 8.532-8.532h16.032c4.705 0 8.533 3.828 8.533 8.532Zm-8.016-47.568c-.172-.004-.343-.013-.517-.013h-16.032c-.173 0-.344.009-.516.013V296.078c0-4.142-3.358-7.5-7.5-7.5 -4.142 0-7.5 3.358-7.5 7.5v142.037l-177.88-110.574c16.785-9.735 31.261-23.236 42.196-39.638l7.766-11.648c12.017-18.025 32.125-28.787 53.788-28.787h74.131v16.548c0 4.142 3.358 7.5 7.5 7.5 4.142 0 7.5-3.358 7.5-7.5v-16.548h17.065V440.9ZM497 223.936c0 4.705-3.828 8.532-8.532 8.532H270.562c-26.69 0-51.464 13.258-66.269 35.466l-7.766 11.648c-21.49 32.236-57.311 50.153-94.036 50.15 -16.822-.001-33.84-3.762-49.747-11.627l-19.607-9.696C21.95 302.875 15 291.685 15 279.204v-79.316C15 97.94 123.112 15 256 15c132.888 0 241 82.94 241 184.887Z"/><path d="M413.507 80.495C371.345 49.264 315.408 32.064 256 32.064c-40.733 0-80.603 8.253-115.299 23.867 -3.777 1.7-5.461 6.14-3.761 9.917 1.7 3.777 6.139 5.461 9.917 3.761C179.632 54.861 217.373 47.064 256 47.064c115.208 0 208.936 68.556 208.936 152.823 0 4.142 3.358 7.5 7.5 7.5 4.142 0 7.5-3.358 7.5-7.5 0-45.26-23.592-87.661-66.429-119.392Z"/><path d="M87.661 152.307c-17.396 0-31.548 14.152-31.548 31.548s14.152 31.548 31.548 31.548 31.548-14.152 31.548-31.548 -14.152-31.548-31.548-31.548Zm0 48.096c-9.125 0-16.548-7.423-16.548-16.548 0-9.125 7.423-16.548 16.548-16.548 9.125 0 16.548 7.423 16.548 16.548 0 9.125-7.423 16.548-16.548 16.548Z"/></g></svg>