<?xml version="1.0" encoding="UTF-8"?><svg version="1.1" viewBox="0 0 512 512" xmlns="http://www.w3.org/2000/svg"><path fill="#FBE280" d="M512 256c0 70.24-28.3 133.87-74.1 180.13 -25.76 26.01-338.04 26.01-363.8 0C28.3 389.87-.0001 326.24-.0001 256c0-141.38 114.62-256 256-256s256 114.62 256 256Z"/><path fill="#EFC859" d="M511.865 247.775L375.09 111l-90.716.541 -122.388 105.197L393.718 448.47c22.921-3.105 39.109-7.218 44.182-12.34C483.7 389.87 512 326.24 512 256c0-2.752-.049-5.493-.135-8.225Z"/><path fill="#EAA678" d="M199.97 250.232h112.06v118.84H199.97Z"/><path fill="#D38C5B" d="M256 250.236h56.03v118.84H256Z"/><path fill="#FFC397" d="M199.97 330.05h112.06v118.84H199.97Z"/><path fill="#EAA678" d="M256 330.05h56.03v118.84H256Z"/><path fill="#FFC397" d="M344.251 152.225c-3.728-56.6-49.511-77.517-88.251-77.517s-84.523 20.917-88.251 77.517c-10.018 1.938-17.134 15.077-16.014 25.701l1.717 24.177c1.175 11.157 10.982 19.301 21.79 18.089l1.864-.202c22.139 59.446 56.857 65.644 78.894 69.125 22.037-3.48 56.756-9.678 78.894-69.125l1.864.202c10.807 1.212 20.614-6.932 21.79-18.089l1.717-24.177c1.12-10.624-5.996-23.763-16.014-25.701Z"/><path fill="#EAA678" d="M360.265 177.926l-1.717 24.177c-1.175 11.157-10.982 19.301-21.79 18.089l-1.864-.202c-7.566 20.293-16.592 34.388-26.078 44.277 -18.291 19.081-38.299 22.552-52.817 24.847V74.708c38.74 0 84.523 20.917 88.251 77.517 10.019 1.938 17.135 15.077 16.015 25.701Z"/><path fill="#AF5E22" d="M375.093 111.002s-45.285-54.409-96.923-66.614c-23.369-5.523-53.396 1.561-73.427 22.718 -26.393 2.308-57.478 23.467-39.658 105.423l20.702 23.07 10.574-53.526c23.378 6.477 70.77 15.61 118.993 1.378l10.302 52.149 20.702-23.07c3.691-17.463 4.732-31.92 3.856-43.913 8.491-4.869 16.831-10.68 24.879-17.615Z"/><path fill="#89491D" d="M350.21 128.62c.88 11.99-.16 26.44-3.85 43.91l-20.7 23.07 -10.31-52.15c-20.53 6.06-40.91 7.88-59.35 7.47V42.85c7.69-.63 15.22-.1 22.17 1.54 51.64 12.2 96.92 66.61 96.92 66.61 -8.04 6.94-16.38 12.75-24.88 17.62Z"/><path fill="#FFF" d="M345.92 495.75c-10.96 4.12-22.28 7.5-33.89 10.09C294 509.88 275.25 512 256 512c-19.25 0-38-2.12-56.03-6.16 -11.61-2.59-22.93-5.97-33.89-10.09l33.89-165.7c12.93 20.73 34.48 31.09 56.03 31.09 21.55 0 43.1-10.36 56.03-31.09Z"/><path fill="#CECECE" d="M345.92 495.75c-10.96 4.12-22.28 7.5-33.89 10.09C294 509.88 275.25 512 256 512V361.14c21.55 0 43.1-10.36 56.03-31.09Z"/><path fill="#336B90" d="M199.97 330.05v175.79c-48.62-10.85-92.03-35.54-125.87-69.71v-61.7c0-24.51 19.87-44.38 44.38-44.38Z"/><g fill="#205077"><path d="M437.9 374.43v61.7c-33.84 34.17-77.25 58.86-125.87 69.71V330.05h81.49c24.51 0 44.38 19.87 44.38 44.38Z"/><path d="M157.33 419.645v72.625c-11.17-4.66-21.95-10.11-32.25-16.25v-56.375Z"/></g><path fill="#163C66" d="M386.92 419.645v56.375c-10.3 6.14-21.08 11.59-32.25 16.25v-72.625Z"/></svg>