<?xml version="1.0" encoding="UTF-8"?><svg version="1.1" viewBox="0 0 512 512" xmlns="http://www.w3.org/2000/svg"><g fill="#000"><path d="M500.718 256.426c-17.831-34.679-53.593-56.441-92.587-56.34 -11.021.009-21.97 1.781-32.432 5.248l-42.624-85.248h67.056c4.418 0 8 3.582 8 8s-3.582 8-8 8h-32c-4.418 0-8 3.582-8 8s3.582 8 8 8h32c13.255 0 24-10.745 24-24s-10.745-24-24-24h-80c-4.418-.024-8.019 3.538-8.044 7.956 -.007 1.256.282 2.496.844 3.62l10.256 20.424H181.074l-8-16h43.056c4.418 0 8-3.582 8-8s-3.582-8-8-8h-80c-4.418 0-8 3.582-8 8s3.582 8 8 8h19.056l12 24 -30.624 61.248C82.007 187.366 23.216 217.025 5.248 271.58c-17.968 54.555 11.691 113.346 66.246 131.314 54.555 17.968 113.346-11.691 131.314-66.246 2.622-7.96 4.271-16.207 4.914-24.562h48.408c.648-.004 1.293-.087 1.92-.248l.168-.04c.184-.048.344-.152.528-.208 .324-.096.642-.21.952-.344 .048 0 .072-.064.112-.088 .04-.024.224-.112.328-.176 .232-.151.457-.314.672-.488 .345-.242.671-.51.976-.8l.312-.32c.12-.136.192-.288.304-.432 .112-.144.376-.408.528-.648 .064-.112.096-.24.152-.352 .056-.112.144-.176.2-.28l72.848-145.688 24.8 49.6c-50.987 26.216-71.068 88.801-44.852 139.787 26.216 50.987 88.801 71.068 139.787 44.852 50.987-26.216 71.068-88.801 44.853-139.787ZM104.13 392.086c-48.601.068-88.055-39.276-88.123-87.877 -.068-48.601 39.276-88.055 87.877-88.123 8.616-.012 17.187 1.241 25.439 3.72L88.97 300.51c-1.975 3.952-.372 8.757 3.58 10.732 1.112.555 2.337.844 3.58.844h95.592c-4.171 45.278-42.122 79.939-87.592 80Zm4.944-96l35.128-70.248c26.816 13.743 44.743 40.244 47.52 70.248h-82.648Zm98.648 0c-2.811-36.072-24.168-68.091-56.392-84.544l24.8-49.6 67.056 134.144h-35.464Zm48.408-9.888l-67.056-134.112h134.112L256.13 286.198Zm177.439 102.168c-8.252 2.479-16.823 3.732-25.439 3.72 -48.566.04-87.968-39.298-88.008-87.864 -.027-33.062 18.493-63.345 47.936-78.384l40.912 81.824c1.975 3.954 6.782 5.559 10.736 3.584 3.954-1.975 5.559-6.782 3.584-10.736l-40.352-80.704c46.547-13.981 95.614 12.418 109.595 58.965 13.982 46.546-12.417 95.614-58.964 109.595Z"/><path d="M104.13 320.086h-8c-4.418 0-8 3.582-8 8s3.582 8 8 8h8c4.418 0 8-3.582 8-8s-3.582-8-8-8Z"/><path d="M136.13 320.086h-8c-4.418 0-8 3.582-8 8s3.582 8 8 8h8c4.418 0 8-3.582 8-8s-3.582-8-8-8Z"/><path d="M168.13 320.086h-8c-4.418 0-8 3.582-8 8s3.582 8 8 8h8c4.418 0 8-3.582 8-8s-3.582-8-8-8Z"/></g></svg>