<?xml version="1.0" encoding="UTF-8"?><svg version="1.1" viewBox="0 0 480 480" xmlns="http://www.w3.org/2000/svg"><g fill="#000"><path d="M296 280h-8.8c-3.31.006-6.271-2.059-7.408-5.168 -.976-2.56-2.024-5.064-3.152-7.544 -1.402-3.016-.762-6.587 1.6-8.928l6.272-6.28c9.311-9.393 9.294-24.541-.04-33.912l-22.608-22.608c-9.383-9.328-24.537-9.328-33.92 0l-6.272 6.264c-2.346 2.353-5.911 2.992-8.928 1.6 -2.48-1.128-4.984-2.176-7.552-3.2 -3.125-1.129-5.204-4.101-5.192-7.424V184c0-13.255-10.745-24-24-24h-32c-13.255 0-24 10.745-24 24v8.8c.006 3.31-2.059 6.271-5.168 7.408 -2.56.976-5.064 2.024-7.544 3.152 -3.017 1.395-6.583.756-8.928-1.6l-6.28-6.272c-9.382-9.322-24.53-9.322-33.912 0l-22.608 22.68c-9.328 9.383-9.328 24.537 0 33.92l6.264 6.272c2.362 2.341 3.002 5.912 1.6 8.928 -1.128 2.48-2.176 4.984-3.16 7.552 -1.145 3.127-4.134 5.194-7.464 5.16H24c-13.255 0-24 10.745-24 24v32c0 13.255 10.745 24 24 24h8.8c3.31-.006 6.271 2.059 7.408 5.168 .976 2.56 2.024 5.064 3.152 7.544 1.402 3.016.762 6.587-1.6 8.928l-6.272 6.28c-9.322 9.382-9.322 24.53 0 33.912l22.608 22.608c9.383 9.328 24.537 9.328 33.92 0l6.272-6.264c2.346-2.353 5.911-2.992 8.928-1.6 2.48 1.128 4.984 2.176 7.552 3.2 3.141 1.116 5.238 4.091 5.232 7.424v8.8c0 13.255 10.745 24 24 24h32c13.255 0 24-10.745 24-24v-8.8c-.006-3.31 2.059-6.271 5.168-7.408 2.56-.976 5.064-2.024 7.544-3.152 3.017-1.395 6.583-.756 8.928 1.6l6.28 6.272c9.395 9.307 24.539 9.289 33.912-.04l22.608-22.608c9.328-9.383 9.328-24.537 0-33.92l-6.264-6.272c-2.362-2.341-3.002-5.912-1.6-8.928 1.128-2.48 2.176-4.984 3.2-7.552 1.129-3.125 4.101-5.204 7.424-5.192h8.8c13.255 0 24-10.745 24-24v-32c0-13.255-10.745-24-24-24Zm8 56c0 4.418-3.582 8-8 8h-8.8c-9.945.037-18.845 6.184-22.4 15.472 -.848 2.24-1.765 4.445-2.752 6.616 -4.113 9.08-2.205 19.756 4.8 26.848l6.256 6.264c3.126 3.122 3.129 8.188.006 11.314 -.002.002-.004.004-.006.006l-22.608 22.608c-3.124 3.123-8.188 3.123-11.312 0l-6.272-6.264c-7.089-7.011-17.769-8.92-26.848-4.8 -2.168.984-4.376 1.904-6.6 2.752 -9.281 3.554-15.424 12.446-15.464 22.384v8.8c0 4.418-3.582 8-8 8h-32c-4.418 0-8-3.582-8-8v-8.8c-.037-9.945-6.184-18.845-15.472-22.4 -2.24-.848-4.445-1.765-6.616-2.752 -9.08-4.111-19.755-2.202-26.848 4.8l-6.264 6.256c-3.122 3.126-8.188 3.129-11.314.006 -.002-.002-.004-.004-.006-.006L46.872 410.52c-3.123-3.124-3.123-8.188 0-11.312l6.264-6.272c7.005-7.092 8.913-17.768 4.8-26.848 -.984-2.168-1.904-4.376-2.752-6.6 -3.546-9.291-12.44-15.444-22.384-15.488H24c-4.418 0-8-3.582-8-8v-32c0-4.418 3.582-8 8-8h8.8c9.945-.037 18.845-6.184 22.4-15.472 .848-2.24 1.765-4.445 2.752-6.616 4.113-9.08 2.204-19.756-4.8-26.848l-6.288-6.264c-3.126-3.122-3.129-8.188-.006-11.314 .002-.002.004-.004.006-.006l22.608-22.608c3.124-3.123 8.188-3.123 11.312 0l6.272 6.264c7.089 7.011 17.769 8.92 26.848 4.8 2.168-.984 4.376-1.904 6.6-2.752 9.294-3.543 15.451-12.438 15.496-22.384V184c0-4.418 3.582-8 8-8h32c4.418 0 8 3.582 8 8v8.8c.037 9.945 6.184 18.845 15.472 22.4 2.24.848 4.445 1.765 6.616 2.752 9.079 4.12 19.759 2.211 26.848-4.8l6.264-6.256c3.136-3.102 8.184-3.102 11.32 0l22.608 22.608c3.123 3.124 3.123 8.188 0 11.312l-6.264 6.272c-7.004 7.092-8.913 17.768-4.8 26.848 .984 2.168 1.904 4.376 2.752 6.6 3.554 9.281 12.446 15.424 22.384 15.464h8.8c4.418 0 8 3.582 8 8v32Z"/><path d="M231.84 316.8c-.08-1.92-.216-3.832-.448-5.736 -.256-2.048-.56-4.08-.984-6.072 -.28-1.304-.648-2.592-1-3.888 -.448-1.648-.952-3.272-1.512-4.872 -.392-1.112-.8-2.216-1.216-3.312 -1.03-2.562-2.208-5.063-3.528-7.488 -.104-.184-.168-.384-.272-.568 -2.081-3.704-4.491-7.215-7.2-10.488 -.232-.288-.496-.56-.736-.84 -1.104-1.304-2.24-2.568-3.432-3.776 -.624-.648-1.28-1.256-1.936-1.88 -.8-.744-1.6-1.48-2.4-2.184 -.971-.843-1.96-1.659-2.968-2.448l-1.312-.976C190.517 253 175.466 247.992 160 248c-.8 0-1.6.12-2.4.152 -1.704.048-3.416.144-5.136.32 -.904.096-1.816.2-2.72.328 -2.608.343-5.196.827-7.752 1.448 -38.521 9.954-61.679 49.252-51.725 87.773 6.56 25.384 26.392 45.2 51.781 51.739 .128 0 .264.04.4.072 2.763.689 5.562 1.224 8.384 1.6 1.864.232 3.728.28 5.6.368 1.248.064 2.4.248 3.704.248 2.28 0 4.648-.152 7.064-.392 .256 0 .512-.072.8-.104 1.944-.216 3.912-.504 5.92-.904 .8-.152 1.544-.352 2.312-.528 1.408-.328 2.808-.672 4.248-1.096 1.12-.336 2.208-.728 3.304-1.112 1.096-.384 2.232-.8 3.368-1.232 1.136-.432 2.088-.928 3.12-1.408 1.344-.616 2.68-1.224 4-1.944h.048c7.466-3.997 14.362-8.977 20.504-14.808 1.659-1.548 3.102-3.314 4.288-5.248 6.244-10.01 10.346-21.205 12.048-32.88 .224-1.544.424-3.088.544-4.664 .112-1.448.192-2.888.224-4.328 0-.456.064-.888.064-1.344 .008-1.128-.104-2.168-.152-3.256Zm-15.944 5.24c0 .664-.056 1.328-.096 1.984 -.144 1.936-.392 3.872-.72 5.816 -2.99 16.633-13.317 31.033-28.112 39.2 -.992.52-1.968 1.008-2.944 1.456l-.664.32c-4.648 2.11-9.554 3.595-14.592 4.416 -.352.056-.712.12-1.072.168 -1 .144-1.984.264-2.96.352 -1.288.112-2.584.176-3.904.2 -.56 0-1.112 0-1.672 0 -1.893-.022-3.783-.139-5.664-.352l-.96-.112c-2.2-.288-4.382-.699-6.536-1.232 -29.962-7.669-48.034-38.175-40.366-68.137 5.067-19.798 20.517-35.264 40.31-40.351v-.008c4.596-1.159 9.316-1.751 14.056-1.76 2.287.013 4.572.168 6.84.464 .608.072 1.208.184 1.808.272 1.728.272 3.44.616 5.128 1.048 .552.144 1.104.272 1.648.424 4.254 1.228 8.349 2.952 12.2 5.136 .616.36 1.216.736 1.824 1.112 1.264.8 2.488 1.6 3.696 2.512 .648.472 1.304.936 1.928 1.44 1.57 1.254 3.073 2.589 4.504 4 .568.576 1.088 1.208 1.64 1.808 .92 1 1.816 2.024 2.672 3.104 .592.744 1.16 1.512 1.72 2.288 .8 1.152 1.6 2.352 2.32 3.568 .4.664.8 1.312 1.208 1.992 1.032 1.899 1.951 3.857 2.752 5.864 .32.8.592 1.6.88 2.4 .52 1.472.968 2.96 1.36 4.464 .2.8.424 1.512.592 2.288 .467 2.162.806 4.35 1.016 6.552 .048.584.048 1.176.088 1.76 .112 1.84.144 3.688.072 5.544Z"/><path d="M456 168h-25.16c-3.355.034-6.356-2.079-7.456-5.248 -2.481-7.431-5.483-14.679-8.984-21.688 -1.486-3.027-.867-6.666 1.536-9.032l17.84-17.864c9.364-9.371 9.364-24.557 0-33.928L399.76 46.28c-9.371-9.364-24.557-9.364-33.928 0L348 64.104c-2.363 2.402-5.997 3.024-9.024 1.544 -7.01-3.519-14.26-6.537-21.696-9.032 -3.182-1.089-5.31-4.093-5.28-7.456V24c0-13.255-10.745-24-24-24h-48c-13.255 0-24 10.745-24 24v25.16c.034 3.355-2.078 6.356-5.248 7.456 -7.432 2.494-14.68 5.51-21.688 9.024 -3.027 1.491-6.668.872-9.032-1.536l-17.864-17.84c-9.382-9.337-24.546-9.337-33.928 0L94.288 80.216c-9.369 9.372-9.369 24.564 0 33.936l26.232 26.28c3.173 3.074 8.238 2.994 11.312-.18 2.999-3.096 3.006-8.012.016-11.116L105.6 102.864c-3.123-3.124-3.123-8.188 0-11.312L139.552 57.6c3.124-3.123 8.188-3.123 11.312 0l17.872 17.84c7.231 7.274 18.311 9.092 27.488 4.512 6.337-3.173 12.889-5.897 19.608-8.152 9.698-3.283 16.21-12.401 16.168-22.64V24c0-4.418 3.582-8 8-8h48c4.418 0 8 3.582 8 8v25.16c-.041 10.237 6.471 19.352 16.168 22.632 6.722 2.256 13.277 4.982 19.616 8.16 9.179 4.556 20.244 2.736 27.48-4.52L377.136 57.6c3.124-3.123 8.188-3.123 11.312 0L422.4 91.56c3.118 3.123 3.118 8.181 0 11.304l-17.84 17.872c-7.267 7.235-9.084 18.31-4.512 27.488 3.173 6.337 5.897 12.889 8.152 19.608 3.281 9.7 12.4 16.212 22.64 16.168H456c4.418 0 8 3.582 8 8v48c0 4.418-3.582 8-8 8h-25.16c-10.237-.041-19.352 6.471-22.632 16.168 -2.255 6.722-4.982 13.277-8.16 19.616 -4.564 9.178-2.743 20.247 4.52 27.48l17.84 17.872c3.123 3.124 3.123 8.188 0 11.312L388.44 374.4c-3.123 3.118-8.181 3.118-11.304 0l-26.288-26.232c-3.074-3.174-8.139-3.254-11.312-.18 -3.174 3.074-3.254 8.139-.18 11.312 .064.066.13.132.196.196l26.28 26.232c9.371 9.364 24.557 9.364 33.928 0l33.952-33.944c9.369-9.372 9.369-24.564 0-33.936L415.896 300c-2.4-2.364-3.021-5.997-1.544-9.024 3.519-7.01 6.537-14.26 9.032-21.696 1.089-3.182 4.093-5.31 7.456-5.28H456c13.255 0 24-10.745 24-24v-48c0-13.255-10.745-24-24-24Z"/><path d="M337.536 142.464c-40.638-40.553-106.434-40.553-147.072 0 -3.069 3.178-2.981 8.243.197 11.312 3.1 2.994 8.015 2.994 11.115 0 34.135-34.596 89.852-34.969 124.448-.834 34.596 34.135 34.969 89.852.834 124.448 -.276.28-.554.558-.834.834 -3.178 3.07-3.266 8.134-.196 11.312 3.07 3.178 8.134 3.266 11.312.196 .066-.064.132-.13.196-.196 40.553-40.638 40.553-106.434 0-147.072Z"/></g></svg>