<?xml version="1.0" encoding="UTF-8"?><svg version="1.1" viewBox="0 0 512 512" xmlns="http://www.w3.org/2000/svg"><path fill="#FFD164" d="M256 7.5c-75.262 0-136.274 61.012-136.274 136.274v61.457c0 107.55 66.785 162.529 66.785 162.529h205.764V143.774C392.273 68.512 331.262 7.5 256 7.5Z"/><path fill="#FFC350" d="M119.726 143.774v61.457c0 107.55 66.785 162.529 66.785 162.529H256V7.5c-75.262 0-136.274 61.012-136.274 136.274Z"/><path fill="#F7D291" d="M408.282 396.981L325.49 367.76c-12.82-4.525-21.393-16.642-21.393-30.237v-49.459h-96.194v49.459c0 13.595-8.573 25.712-21.393 30.236l-82.793 29.221c-19.23 6.787-32.089 24.962-32.089 45.354V504.5H440.37v-62.165c.001-20.392-12.858-38.567-32.088-45.354Z"/><path fill="#A5CDFF" d="M408.282 396.981l-68.898-24.317c-11.856 34.701-44.667 59.691-83.384 59.691s-71.528-24.99-83.384-59.691l-68.898 24.317c-19.23 6.787-32.089 24.962-32.089 45.354V504.5h368.742v-62.165c0-20.392-12.859-38.567-32.089-45.354Z"/><path fill="#EDEBED" d="M256 464.419c52.682 0 97.338-33.934 113.594-81.093l-30.21-10.663c-11.856 34.701-44.667 59.691-83.384 59.691s-71.528-24.99-83.384-59.691l-30.211 10.663c16.257 47.16 60.913 81.093 113.595 81.093Z"/><path fill="#F0C382" d="M207.903 325.906c13.042 5.808 27.268 9.411 42.305 10.118 1.94.091 3.872.137 5.792.137 17.103 0 33.353-3.645 48.097-10.11v-37.987h-96.194l0 37.842v0Z"/><path fill="#FFE1A0" d="M372.234 175.839h-9.159c-10.437 0-18.897-8.461-18.897-18.897v-13.167c0-22.136-17.944-40.081-40.081-40.081h-96.194c-22.136 0-40.081 17.945-40.081 40.081v13.167c0 10.437-8.46 18.897-18.897 18.897h-9.159c-11.068 0-20.04 8.972-20.04 20.04s8.972 20.04 20.04 20.04h12.429c4.106 53.795 48.958 96.194 103.805 96.194 54.847 0 99.699-42.398 103.805-96.194h12.429c11.068 0 20.04-8.973 20.04-20.04 -.001-11.068-8.972-20.04-20.04-20.04Z"/><path fill="#FFD164" d="M304.096 312.113v32.065c0 70.783 56.113 96.194 56.113 160.323h32.065V312.113h-88.178Z"/><path fill="#F7D291" d="M372.234 175.839h-9.159c-10.437 0-18.897-8.461-18.897-18.897v-13.167c0-5.534-1.121-10.806-3.15-15.601 -4.056-9.59-11.739-17.273-21.329-21.33 -4.796-2.028-10.067-3.15-15.602-3.15h-96.194c-1.953 0-3.852.2-5.721.485 -.676.1-1.339.225-2.002.358 -1.2.248-2.372.557-3.531.91 -1.139.342-2.249.73-3.343 1.169 -.83.333-1.671.644-2.476 1.026 .012.016.025.031.038.047 -2.468 1.186-4.849 2.524-7.015 4.159v.044c-9.682 7.316-16.032 18.813-16.032 31.883v13.987c0 10.392-8.713 17.97-19.104 18.077h-7.808c-10.483 0-20.036 7.542-21.081 17.973 -1.202 11.996 8.186 22.108 19.937 22.108h12.429c4.106 53.795 48.958 96.194 103.805 96.194 5.484 0 10.83-.534 16.083-1.351 -49.946-7.708-88.228-50.754-88.228-102.859v-48.986c0-.15.001-.3.004-.449 .31-19.62 24.466-29.176 39.211-16.229 41.339 36.297 95.212 57.649 153.173 57.649 3.929 0 8.122-.15 12.61-.417 1.314-1.462 2.107-2.344 3.421-3.806 -.115-10.971-9.043-19.827-20.039-19.827Z"/><path fill="#FFE17D" d="M256 7.5c-28.992 0-55.818 9.121-77.908 24.556 27.208 83.455 105.613 143.783 198.15 143.783 5.401 0 10.735-.271 16.032-.675v-31.39C392.273 68.512 331.262 7.5 256 7.5Z"/><g fill="#000"><path d="M207.903 176.355c-4.142 0-7.5 3.358-7.5 7.5v8.016c0 4.142 3.358 7.5 7.5 7.5 4.142 0 7.5-3.358 7.5-7.5v-8.016c0-4.142-3.358-7.5-7.5-7.5Z"/><path d="M304.096 176.355c-4.143 0-7.5 3.358-7.5 7.5v8.016c0 4.142 3.357 7.5 7.5 7.5s7.5-3.358 7.5-7.5v-8.016c0-4.142-3.357-7.5-7.5-7.5Z"/><path d="M274.781 234.629c-2.737 2.701-9.299 5.855-18.781 5.855s-16.043-3.154-18.781-5.855c-2.949-2.91-7.698-2.877-10.606.071 -2.909 2.949-2.877 7.697.071 10.606 6.459 6.373 17.418 10.177 29.316 10.177 11.897 0 22.856-3.805 29.316-10.177 2.948-2.909 2.98-7.658.071-10.606 -2.909-2.948-7.657-2.981-10.606-.071Z"/><path d="M410.778 389.909l-11.004-3.884V143.774C399.773 64.497 335.277-.0001 256-.0001c-79.277 0-143.774 64.497-143.774 143.774v61.457c0 57.308 18.762 99.89 34.501 125.521 9.566 15.578 19.124 26.901 25.837 33.978l-71.341 25.179c-22.187 7.83-37.093 28.899-37.093 52.427V504.5c0 4.142 3.358 7.5 7.5 7.5 4.142 0 7.5-3.358 7.5-7.5v-62.165c0-4.992.925-9.83 2.626-14.326l37.925 32.507c5.452 4.673 8.578 11.471 8.578 18.651V504.5c0 4.142 3.358 7.5 7.5 7.5 4.142 0 7.5-3.358 7.5-7.5v-25.333c0-11.564-5.036-22.513-13.816-30.04l-39.755-34.075c4.423-4.876 10.048-8.712 16.528-10.999l31.671-11.178c19.603 47.513 66.331 79.044 118.114 79.044 28.488 0 55.975-9.466 78.311-26.814 10.185 17.714 18.399 35.832 18.399 59.395 0 4.142 3.357 7.5 7.5 7.5s7.5-3.358 7.5-7.5c0-33.365-14.285-56.986-28.101-79.83 -14.406-23.82-28.013-46.319-28.013-80.493v-8.016c0-4.142-3.357-7.5-7.5-7.5s-7.5 3.358-7.5 7.5v8.016c0 23.851 5.933 42.678 13.987 59.406 -14.924 13.744-34.158 21.271-54.584 21.271 -31.927 0-60.742-18.911-73.641-47.676l6.647-2.346c15.789-5.573 26.397-20.566 26.397-37.309v-25.55c12.59 4.928 26.282 7.639 40.597 7.639 56.313 0 103.051-41.921 110.632-96.193h4.457c4.912 0 9.587-1.231 13.686-3.386V504.5c0 4.142 3.357 7.5 7.5 7.5s7.5-3.358 7.5-7.5v-50.374l30.47-26.117c1.702 4.496 2.626 9.334 2.626 14.326V504.5c0 4.142 3.357 7.5 7.5 7.5s7.5-3.358 7.5-7.5v-62.165c0-23.527-14.906-44.596-37.093-52.426ZM256 439.855c22.899 0 44.534-7.979 61.782-22.62 2.864 5.053 5.835 9.977 8.79 14.863 -19.968 16.044-44.804 24.822-70.572 24.822 -45.443 0-86.468-27.514-103.943-69.046l16.127-5.692c15.045 34.746 49.541 57.673 87.816 57.673Zm-55.597-102.332c0 8.942-4.881 17.07-12.483 21.373 -12.401-11.944-55.185-58.651-60.204-138.268 3.72 1.811 7.836 2.791 12.05 2.791h5.598c4.855 34.791 25.795 64.501 55.04 81.351v32.753h-.001Zm184.304-140.325c-.63 6.292-6.612 11.221-13.618 11.221h-3.383v-.439c0-4.141-3.356-7.499-7.497-7.5 -.001 0-.002 0-.003 0 -4.14 0-7.497 3.354-7.5 7.495 -.04 53.286-43.422 96.638-96.706 96.638 -53.326 0-96.71-43.384-96.71-96.709 0-4.142-3.358-7.5-7.5-7.5 -4.142 0-7.5 3.358-7.5 7.5v.516h-4.524c-3.537 0-6.927-1.506-9.303-4.131 -2.407-2.66-3.533-6.115-3.171-9.729 .631-6.292 6.613-11.221 13.62-11.221h2.861 .001c8.426 0 16.349-3.282 22.307-9.24 5.959-5.958 9.241-13.881 9.241-22.308v-8.016c0-10.343 4.75-19.845 13.033-26.068 3.312-2.488 3.979-7.19 1.491-10.501 -2.488-3.311-7.19-3.979-10.501-1.491 -12.089 9.083-19.022 22.956-19.022 38.06v8.016c0 4.42-1.721 8.576-4.847 11.702 -3.125 3.125-7.281 4.847-11.701 4.847v0h-2.862c-4.913 0-9.588 1.231-13.687 3.387v-27.951c0-39.683 18.047-75.225 46.359-98.866 17.819 39.501 44.174 73.299 76.621 98.143 33.932 25.98 72.999 40.288 110.004 40.288h12.023c3.537 0 6.928 1.505 9.304 4.131 2.406 2.657 3.532 6.112 3.17 9.726Zm-12.474-28.859H360.21c-33.728 0-69.556-13.21-100.886-37.198 -31.284-23.953-56.569-56.847-73.378-95.366C206.122 22.642 230.184 15 256 15c71.007 0 128.774 57.768 128.774 128.774v27.594c-3.846-1.967-8.141-3.029-12.541-3.029Zm27.54 266.032v-32.439l6.012 2.122c6.479 2.287 12.104 6.123 16.527 10.999l-22.539 19.318Z"/><path d="M213.548 144.675l-24.048 8.016c-3.93 1.31-6.053 5.558-4.744 9.487 1.048 3.143 3.974 5.13 7.114 5.13 .786 0 1.586-.125 2.373-.387l24.048-8.016c3.93-1.31 6.053-5.557 4.744-9.487 -1.31-3.929-5.559-6.052-9.487-4.743Z"/></g></svg>