<svg id="Layer_1" data-name="Layer 1" xmlns="http://www.w3.org/2000/svg" viewBox="0 0 925.03 231.12"><defs><style>.cls-1{fill:#d9e021;}.cls-2{fill:#29abe2;}.cls-3{fill:#39b54a;}</style></defs><polygon class="cls-1" points="340.29 9.31 508.41 9.31 508.41 16.39 373.28 16.39 281.39 222.31 177.75 222.31 181.29 213.09 248.67 213.09 340.29 9.31"/><path class="cls-1" d="M517.14,0a13.42,13.42,0,1,0,13.42,13.42A13.41,13.41,0,0,0,517.14,0Zm0,20.8a7.39,7.39,0,1,1,7.4-7.38A7.39,7.39,0,0,1,517.14,20.8Z" transform="translate(-0.72 0)"/><path class="cls-2" d="M341.08,117.22h40.66v16.71H359.29v12.68h21.64v16.71H359.29V191.7H341.08Z" transform="translate(-0.72 0)"/><path class="cls-2" d="M392,117.22h19V191.7H392Z" transform="translate(-0.72 0)"/><path class="cls-2" d="M424.52,117.22h22.94c12.59,0,18.42,1.21,23.86,7.25,3.32,3.42,4.43,7.95,4.43,12.28a16.82,16.82,0,0,1-8.66,15c12,4.23,12.28,14.19,12.28,17.31,0,5.94-2.32,12.48-6.85,16.21-6.84,5.74-11.77,6.44-24.35,6.44H424.52Zm18.21,28.28h6.75c2.61,0,8,0,8-5.94,0-5.63-5.13-5.63-8-5.63h-6.75Zm0,29.49h9c2.42,0,9.46,0,9.46-7.14,0-6.45-6.44-6.45-9.46-6.45h-9Z" transform="translate(-0.72 0)"/><path class="cls-2" d="M489.64,117.22H531v16.71H507.85V145.5H530.3v16.71H507.85V175H531V191.7H489.64Z" transform="translate(-0.72 0)"/><path class="cls-2" d="M542.78,117.22h23.55c13.08,0,18.12,1.61,22.95,5.34,6.14,4.83,9.16,12.68,9.16,20.33,0,8.55-4.43,21.13-18.52,23.45l20.23,25.36H578.41l-17.21-24H561v24H542.78ZM561,154.66h6.74c11.17,0,12.48-7,12.48-10.67,0-6.74-4.93-10.06-12.28-10.06H561Z" transform="translate(-0.72 0)"/><path class="cls-1" d="M609,117.22h19V175h22V191.7H609Z" transform="translate(-0.72 0)"/><path class="cls-1" d="M657.52,117.22h41.37v16.71H675.74V145.5h22.44v16.71H675.74V175h23.15V191.7H657.52Z" transform="translate(-0.72 0)"/><path class="cls-1" d="M719.62,133.93H704.93V117.22h48.31v16.71H738.65V191.7h-19Z" transform="translate(-0.72 0)"/><path class="cls-1" d="M760.89,117.22h19V191.7h-19Z" transform="translate(-0.72 0)"/><path class="cls-1" d="M867.27,163.82c-4.32,17.61-19.62,29.29-37.64,29.29a38.73,38.73,0,0,1-39.25-38.75c0-19,14.69-38.55,39-38.55,23.35,0,35.83,18,37.84,29.69H847.35c-2.12-5.53-7.75-13-18-13-12.78,0-19.93,11.17-19.93,21.74,0,11.27,7.65,22.14,20,22.14,11.88,0,16.71-10,17.92-12.58Z" transform="translate(-0.72 0)"/><path class="cls-1" d="M906.33,139c-.41-2.52-1-7.25-6.85-7.25-3.32,0-6.54,2.32-6.54,5.84,0,4.43,2,5.34,15.4,11.38,13.89,6.23,17.41,12.68,17.41,21.33,0,10.87-6.24,22.85-26,22.85-21.54,0-26.88-14.09-26.88-23.65V167h18.92c0,8.66,5.34,10.17,7.75,10.17a7.19,7.19,0,0,0,7.25-7.15c0-4.93-3.12-6.14-14.59-11C887,157,874,151.74,874,137.75s13.59-21.94,26.07-21.94c7.34,0,15.3,2.72,20.13,8.46,4.42,5.43,4.73,10.46,4.93,14.69Z" transform="translate(-0.72 0)"/><path class="cls-3" d="M347.17,209.5h5.49c3,0,4.41.3,5.71,1.77a4.3,4.3,0,0,1,1.06,3,4.14,4.14,0,0,1-2.07,3.66,4.21,4.21,0,0,1,2.94,4.23,5.32,5.32,0,0,1-1.64,4c-1.64,1.4-2.82,1.57-5.83,1.57h-5.66Zm4.36,6.92h1.61c.63,0,1.93,0,1.93-1.46s-1.23-1.37-1.93-1.37h-1.61Zm0,7.21h2.14c.58,0,2.27,0,2.27-1.75,0-1.58-1.55-1.58-2.27-1.58h-2.14Z" transform="translate(-0.72 0)"/><path class="cls-3" d="M374.8,209.5h9.9v4.09h-5.54v2.83h5.37v4.08h-5.37v3.13h5.54v4.08h-9.9Z" transform="translate(-0.72 0)"/><path class="cls-3" d="M403.49,221.09l-5.33-11.59h4.94l2.65,7.31,2.68-7.31h4.89L408,221.09v6.62h-4.55Z" transform="translate(-0.72 0)"/><path class="cls-3" d="M434.85,209.16a9.45,9.45,0,1,1-9.39,9.67,10.29,10.29,0,0,1,.7-3.89A9.27,9.27,0,0,1,434.85,209.16Zm.07,14.81c3.23,0,4.8-3,4.8-5.34s-1.57-5.39-4.84-5.39S430,216,430,218.56C430,221.36,431.87,224,434.92,224Z" transform="translate(-0.72 0)"/><path class="cls-3" d="M458.77,209.5h3.93l6.89,11.44.05-.05-.19-11.39h4.36v18.21h-3.95l-6.8-11.07-.05,0,.12,11.05h-4.36Z" transform="translate(-0.72 0)"/><path class="cls-3" d="M488.86,209.5h5.9c2,0,5.57,0,7.88,3.4a9.43,9.43,0,0,1,1.64,5.66c0,5-2.41,9.15-9.18,9.15h-6.24Zm4.55,14.13h2c3.39,0,4.36-2.42,4.36-5a6.53,6.53,0,0,0-.87-3.37,3.74,3.74,0,0,0-3.47-1.67h-2Z" transform="translate(-0.72 0)"/><path class="cls-3" d="M538.51,209.5h5.83c3.3,0,4.53.52,5.49,1.33a6.25,6.25,0,0,1,2.1,4.82,6.67,6.67,0,0,1-1.88,4.78c-1.23,1.06-2.43,1.57-5.2,1.57h-2v5.71h-4.36Zm4.36,8.42h1.86c.86,0,2.84,0,2.84-2.19s-2-2.14-3-2.14h-1.69Z" transform="translate(-0.72 0)"/><path class="cls-3" d="M565.87,209.5h5.64c3.13,0,4.34.39,5.5,1.31a6.39,6.39,0,0,1,2.19,5c0,2.09-1.06,5.16-4.43,5.73l4.84,6.2H574.4l-4.12-5.88h0v5.88h-4.37Zm4.37,9.15h1.61c2.67,0,3-1.72,3-2.6,0-1.65-1.18-2.46-2.94-2.46h-1.66Z" transform="translate(-0.72 0)"/><path class="cls-3" d="M602.28,209.16a9.45,9.45,0,1,1-9.4,9.67,10.48,10.48,0,0,1,.7-3.89A9.28,9.28,0,0,1,602.28,209.16Zm.07,14.81c3.23,0,4.79-3,4.79-5.34s-1.56-5.39-4.84-5.39-4.87,2.76-4.87,5.32C597.43,221.36,599.29,224,602.35,224Z" transform="translate(-0.72 0)"/><path class="cls-3" d="M628,213.59h-3.52V209.5H636v4.09h-3.5v14.12H628Z" transform="translate(-0.72 0)"/><path class="cls-3" d="M649.9,209.5h9.9v4.09h-5.54v2.83h5.37v4.08h-5.37v3.13h5.54v4.08h-9.9Z" transform="translate(-0.72 0)"/><path class="cls-3" d="M692.35,220.89a9.18,9.18,0,0,1-9,7.16,9.45,9.45,0,0,1-.05-18.89,9.17,9.17,0,0,1,9.06,7.26h-4.77a4.64,4.64,0,0,0-4.32-3.18c-3,0-4.77,2.73-4.77,5.32,0,2.75,1.84,5.41,4.8,5.41a4.78,4.78,0,0,0,4.29-3.08Z" transform="translate(-0.72 0)"/><path class="cls-3" d="M708.9,213.59h-3.52V209.5h11.56v4.09h-3.49v14.12H708.9Z" transform="translate(-0.72 0)"/><path class="cls-3" d="M730.82,209.5h4.55v18.21h-4.55Z" transform="translate(-0.72 0)"/><path class="cls-3" d="M754.09,209.5l3.59,12.77h.05l3.61-12.77H766l-6,18.21h-4.7l-6-18.21Z" transform="translate(-0.72 0)"/><path class="cls-3" d="M780.08,209.5H790v4.09h-5.54v2.83h5.37v4.08h-5.37v3.13H790v4.08h-9.9Z" transform="translate(-0.72 0)"/><path class="cls-3" d="M842.52,217.35c0,.32,0,.59,0,1a9.5,9.5,0,1,1-19,.22A9.48,9.48,0,0,1,842,215.6h-5.11a4.36,4.36,0,0,0-3.93-2.36,4.94,4.94,0,0,0-4.86,5.29c0,3.82,2.64,5.47,4.89,5.47a4.06,4.06,0,0,0,4.26-2.93H832v-3.72Z" transform="translate(-0.72 0)"/><path class="cls-3" d="M857,209.5h9.9v4.09h-5.54v2.83h5.37v4.08h-5.37v3.13h5.54v4.08H857Z" transform="translate(-0.72 0)"/><path class="cls-3" d="M886.15,225.08l-.94,2.63h-4.89l7.15-18.21h3.59l7.09,18.21h-4.94l-.87-2.63Zm1.25-3.69h3.73l-1.83-6.23h-.07Z" transform="translate(-0.72 0)"/><path class="cls-3" d="M912,209.5h5.64c3.13,0,4.33.39,5.49,1.31a6.36,6.36,0,0,1,2.19,5c0,2.09-1.06,5.16-4.43,5.73l4.84,6.2h-5.2l-4.12-5.88h0v5.88H912Zm4.36,9.15H918c2.68,0,3-1.72,3-2.6,0-1.65-1.18-2.46-2.94-2.46h-1.66Z" transform="translate(-0.72 0)"/><path class="cls-3" d="M469.51,31.31a13.42,13.42,0,1,0,13.42,13.42A13.42,13.42,0,0,0,469.51,31.31Zm0,20.8a7.39,7.39,0,1,1,7.41-7.38A7.39,7.39,0,0,1,469.51,52.11Z" transform="translate(-0.72 0)"/><polygon class="cls-3" points="264.61 41.19 461.44 41.19 461.44 48.27 297.6 48.27 220.62 222.31 116.99 222.31 120.53 213.09 187.91 213.09 264.61 41.19"/><path class="cls-2" d="M394.92,63.17a13.42,13.42,0,1,0,13.42,13.42A13.41,13.41,0,0,0,394.92,63.17Zm0,20.8a7.4,7.4,0,1,1,7.4-7.38A7.39,7.39,0,0,1,394.92,84Z" transform="translate(-0.72 0)"/><path class="cls-2" d="M14.14,204.28A13.42,13.42,0,1,0,27.56,217.7,13.41,13.41,0,0,0,14.14,204.28Zm0,20.8a7.4,7.4,0,1,1,7.4-7.38A7.39,7.39,0,0,1,14.14,225.08Z" transform="translate(-0.72 0)"/><polygon class="cls-2" points="189.68 73.06 386.51 73.06 386.51 80.14 222.67 80.14 158.37 222.17 21 222.17 24.54 212.94 125.66 212.94 189.68 73.06"/></svg>