<?xml version="1.0" encoding="UTF-8"?><svg version="1.1" viewBox="0 0 500 500" xmlns="http://www.w3.org/2000/svg"><g transform="translate(0-552.362)"><rect width="500" height="500" rx="250" y="552.362" fill="#0077B5" stroke="none"/><g transform="matrix(.99533 0 0 .997168 619.97-73.1286)"/><path fill="#FFF" stroke="none" d="M128.763 642.362c-21.4137 0-38.7632 17.3889-38.7632 38.8421 0 21.4532 17.3495 38.8421 38.7632 38.8421 21.4136 0 38.7632-17.3889 38.7632-38.8421 0-21.4532-17.3496-38.8422-38.7632-38.8422Zm203.026 101.132v.0263c-4.3784-.0156-8.6265.1596-14.1843.4473 -12.189.6309-40.6558 13.8378-51.079 34.921 0-9.1533.1052-17.56.1052-30.1053 -12.4852 0-28.8242.0789-62.9474.0789 0 38.3081-.4211 173.971-.4211 213.5h66.0789c0-23.4498.3157-82.3529.3157-119.342 0-12.4205 7.508-41.1053 38.3157-41.1053 27.9738 0 35.8157 23.5773 35.8157 41.1052 0 38.5225-.2895 92.9763-.2895 119.342h66.4737c0-25.7724.2363-95.779-.5527-139.947 -.958-53.6284-33.5334-76.5099-62.7632-78.3158 -6.0151-.3715-10.4901-.5893-14.8685-.6053Zm-236.211 6.2105v212.553h66.2631V749.704H95.5787Z"/></g></svg>